<?xml version="1.0" encoding="UTF-8" standalone="no"?>
<!-- Created with Inkscape (http://www.inkscape.org/) -->

<svg
   width="171.66267mm"
   height="172.93562mm"
   viewBox="0 0 171.66267 172.93562"
   version="1.1"
   id="svg1"
   xml:space="preserve"
   inkscape:version="1.3.2 (091e20e, 2023-11-25, custom)"
   sodipodi:docname="MUCTDolddraw.svg"
   xmlns:inkscape="http://www.inkscape.org/namespaces/inkscape"
   xmlns:sodipodi="http://sodipodi.sourceforge.net/DTD/sodipodi-0.dtd"
   xmlns="http://www.w3.org/2000/svg"
   xmlns:svg="http://www.w3.org/2000/svg"><sodipodi:namedview
     id="namedview1"
     pagecolor="#ffffff"
     bordercolor="#000000"
     borderopacity="0.25"
     inkscape:showpageshadow="2"
     inkscape:pageopacity="0.0"
     inkscape:pagecheckerboard="0"
     inkscape:deskcolor="#d1d1d1"
     inkscape:document-units="mm"
     inkscape:zoom="0.51717104"
     inkscape:cx="1297.4431"
     inkscape:cy="-621.65121"
     inkscape:window-width="1920"
     inkscape:window-height="1017"
     inkscape:window-x="-8"
     inkscape:window-y="-8"
     inkscape:window-maximized="1"
     inkscape:current-layer="layer1" /><defs
     id="defs1" /><g
     inkscape:label="Layer 1"
     inkscape:groupmode="layer"
     id="layer1"
     transform="translate(-66.315683,373.06304)"><g
       id="g1"><g
         id="g35"><path
           d="m 235.25437,-293.37239 -76.35174,-76.90508 c -3.67344,-3.71993 -9.81599,-3.70831 -13.49175,0 l -76.340117,76.90508 c -3.664139,3.69669 -3.682739,9.87644 0,13.57313 l 76.340117,76.9074 c 3.66879,3.67344 9.83226,3.69669 13.49175,0.005 l 76.35174,-76.91205 c 3.95243,-3.97801 3.29679,-9.50909 0,-13.57313"
           style="fill:#ffd033;fill-opacity:1;fill-rule:nonzero;stroke:none;stroke-width:0.264583"
           id="path61-8-4" /><path
           id="path62-5-8"
           style="fill:#000000;fill-opacity:1;fill-rule:evenodd;stroke:none;stroke-width:0.264583"
           d="m 152.15898,-370.63215 c -1.83584,0.001 -3.67211,0.68838 -5.03918,2.05661 l -76.340073,76.9165 c -2.752751,2.77136 -2.734152,7.37048 0,10.13718 l 76.340073,76.90929 c 2.75275,2.75043 7.32572,2.7574 10.07615,0 l 76.35449,-76.90707 c 2.73416,-2.75275 2.72219,-7.37978 -0.005,-10.13718 l -76.34961,-76.91872 c -1.36592,-1.37405 -3.20112,-2.05807 -5.03697,-2.05661 z m -0.003,4.0167 c 0.80066,0.003 1.60274,0.30645 2.20142,0.89932 l 76.35893,76.89597 a 3.2247217,3.2247217 0 0 1 0,4.44278 h -0.002 l -76.35901,76.90763 c -1.20898,1.19735 -3.19195,1.202 -4.39396,0 l -76.345061,-76.90763 a 3.1968222,3.1968222 0 0 1 0,-4.44278 l 76.347281,-76.89597 c 0.59287,-0.60682 1.39189,-0.90281 2.19254,-0.89932 z" /></g><path
         id="path33"
         style="fill:#000000;fill-opacity:1;stroke:none;stroke-width:0.4;stroke-miterlimit:19.4;stroke-dasharray:none;stroke-dashoffset:402.406;stroke-opacity:1"
         d="m 144.28445,-344.81668 a 6.9065642,6.9065642 0 0 0 -6.90656,6.90656 6.9065642,6.9065642 0 0 0 6.90656,6.90655 6.9065642,6.9065642 0 0 0 6.90655,-6.90655 6.9065642,6.9065642 0 0 0 -6.90655,-6.90656 z m 6.53603,13.55318 c -0.29379,-0.0133 -0.58771,-0.013 -0.8816,0.002 -0.67175,0.0336 -1.3427,0.14429 -2.00969,0.34778 -5.33585,1.62787 -7.77782,14.92209 -7.77782,14.92209 l -1.08521,4.52168 -13.83895,10.39523 2.49391,4.15686 14.64458,-6.20324 4.15685,-7.22644 5.56349,10.87169 -7.86567,16.17938 -6.20324,28.26546 8.05791,2.23862 6.58668,-25.57984 5.148,-6.42699 15.08022,32.56648 6.33088,-5.15472 -13.09791,-38.34753 c 2.33416,-6.10716 -0.7674,-14.19655 -0.7674,-14.19655 l -2.46186,-7.19439 4.6607,0.22996 2.98431,18.35908 4.88394,0.99477 -1.08521,-23.42389 c 0,0 -7.50684,-3.61726 -11.48612,-5.42602 -3.26425,-1.48375 -7.62403,-4.6719 -12.03079,-4.87102 z m -58.325631,60.31001 3.680395,3.70779 h 41.357166 l 0.8139,-3.70779 z m 60.517231,0 -0.95446,3.70779 h 10.71562 l -1.71721,-3.70779 z m 23.83627,0 1.26608,3.70779 h 30.00437 l 3.68039,-3.70779 z m -58.6791,25.86509 3.68091,3.7083 h 60.59113 l 3.68143,-3.7083 z" /></g></g></svg>
